/vscmnt/brussel_pixiu_data/_data_brussel/112/vsc11236/PredSimResults/SUBJ07opt3D/weighted-LRposFixed/trackIG/worker_05.mot
version=1
nRows=5
nColumns=50
inDegrees=yes
endheader
                time	         pelvis_tilt	         pelvis_list	     pelvis_rotation	           pelvis_tx	           pelvis_ty	           pelvis_tz	       hip_flexion_r	     hip_adduction_r	      hip_rotation_r	        knee_angle_r	       ankle_angle_r	         mtp_angle_r	       hip_flexion_l	     hip_adduction_l	      hip_rotation_l	        knee_angle_l	       ankle_angle_l	         mtp_angle_l	    lumbar_extension	      lumbar_bending	     lumbar_rotation	 ercspn_r/activation	 intobl_r/activation	 extobl_r/activation	    abd_r/activation	    add_r/activation	hamstrings_r/activation	bifemsh_r/activation	glut_max_r/activation	iliopsoas_r/activation	rect_fem_r/activation	  vasti_r/activation	gastroc_r/activation	 soleus_r/activation	tib_ant_r/activation	 ercspn_l/activation	 intobl_l/activation	 extobl_l/activation	    abd_l/activation	    add_l/activation	hamstrings_l/activation	bifemsh_l/activation	glut_max_l/activation	iliopsoas_l/activation	rect_fem_l/activation	  vasti_l/activation	gastroc_l/activation	 soleus_l/activation	tib_ant_l/activation	
          1.15260933	         -3.58593266	          0.00626245	          9.47439983	          1.30244854	          0.84996694	         -0.01549910	         30.06502222	         -2.82334451	         -5.88385355	         -8.81657831	          2.36926901	          0.26770016	        -14.00543842	          0.29851111	          5.08988617	         -8.81311601	          9.42836522	         27.62592820	        -11.63779485	         -1.76337884	         -1.43536501	          0.12329963	          0.12669714	          0.00999999	          0.01310176	          0.17760946	          0.07556846	          0.09565700	          0.09768085	          0.04362557	          0.00999999	          0.00999999	          0.00999999	          0.00999999	          0.41461033	          0.10139383	          0.00999999	          0.00999999	          0.03610347	          0.05140841	          0.01589441	          0.17363262	          0.02019541	          0.40219523	          0.00999999	          0.00999999	          0.18349525	          0.33626071	          0.01715865	
          1.16413542	         -3.58734118	          0.08406295	          9.48753384	          1.31841819	          0.84819247	         -0.01490345	         30.06095277	         -2.64668171	         -5.60876974	        -10.69182757	          2.05893579	          0.24517845	        -14.57222237	          0.22480048	          4.76831915	         -9.74672701	          8.61339316	         29.21930854	        -11.45664955	         -1.40634671	         -1.65159439	          0.10560569	          0.12097816	          0.00999999	          0.01099048	          0.18257103	          0.06546314	          0.08024232	          0.15983896	          0.03659551	          0.00999999	          0.00999999	          0.01421105	          0.01192100	          0.44197103	          0.12398603	          0.00999999	          0.00999999	          0.03028557	          0.08787658	          0.01333310	          0.15499096	          0.01694102	          0.43455628	          0.00999999	          0.00999999	          0.15392586	          0.31926004	          0.01439361	
          1.17566152	         -3.58313430	          0.16972195	          9.45009156	          1.33459529	          0.84663646	         -0.01424567	         29.89624857	         -2.50145294	         -5.25906189	        -12.35639122	          1.71804921	          0.23831867	        -14.95917626	          0.18170795	          4.40460745	        -11.03865301	          7.68364880	         30.81394713	        -11.26733242	         -1.05165792	         -1.86097439	          0.12479079	          0.10148310	          0.00999999	          0.06621769	          0.18339950	          0.06006542	          0.09198327	          0.17556541	          0.03069832	          0.00999999	          0.00999999	          0.01192100	          0.00999999	          0.51042158	          0.14244095	          0.00999999	          0.00999999	          0.02540519	          0.08105185	          0.01118454	          0.13484266	          0.01421105	          0.37989257	          0.00999999	          0.00999999	          0.12912143	          0.29712853	          0.01207415	
          1.18718761	         -3.57493730	          0.27051129	          9.36102376	          1.35079118	          0.84542872	         -0.01349116	         29.64566556	         -2.36697898	         -4.96294538	        -13.86656705	          1.35941238	          0.21949934	        -15.11533375	          0.17596998	          4.00144840	        -12.74047893	          6.58784579	         32.38662298	        -11.08900799	         -0.71181741	         -2.05806815	          0.14071840	          0.08512957	          0.00999999	          0.11988315	          0.18751024	          0.05258400	          0.07716060	          0.19969611	          0.02575143	          0.00999999	          0.00999999	          0.00999999	          0.00999999	          0.53120938	          0.17593824	          0.00999999	          0.00999999	          0.02131126	          0.07728395	          0.01164681	          0.11311340	          0.01192101	          0.31867467	          0.00999999	          0.00999999	          0.10831412	          0.27233000	          0.01012846	
          1.19871370	         -3.56348902	          0.37793652	          9.22508277	          1.36680411	          0.84471929	         -0.01265340	         29.40944544	         -2.24146665	         -4.72812750	        -15.43184446	          1.28214307	          0.19774131	        -14.99263470	          0.19918631	          3.56359351	        -14.89425982	          5.29560130	         33.84761152	        -10.93634806	         -0.37664517	         -2.23876778	          0.14571729	          0.07141134	          0.00999999	          0.16239055	          0.20064775	          0.04672032	          0.06472653	          0.21883859	          0.02160171	          0.00999999	          0.02591102	          0.00999999	          0.00999999	          0.52558873	          0.21536674	          0.00999999	          0.00999999	          0.01787705	          0.09142870	          0.01252745	          0.10151351	          0.00999999	          0.26732175	          0.00999999	          0.00999999	          0.09085981	          0.23189633	          0.00999999	
